<svg width="108" height="103" viewBox="0 0 108 103" fill="none" xmlns="http://www.w3.org/2000/svg">
<path d="M83.9622 84.9618L11.7801 11.9204C7.41057 7.49879 10.5427 0 16.7591 0H35.1939C37.0647 0 38.8578 0.748921 40.1728 2.07963L103.138 65.7939C105.832 68.5207 105.832 72.9078 103.138 75.6347L93.9201 84.9618C91.1799 87.7346 86.7024 87.7346 83.9622 84.9618Z" fill="url(#paint0_linear_2_49)"/>
<path d="M76.6046 91.1798L12.0302 26.9635C7.60154 22.5594 10.7204 15 16.9661 15H35.0735C36.9145 15 38.6815 15.7253 39.9916 17.0188L95.8808 72.1999C98.6851 74.9687 98.652 79.5058 95.8076 82.2335L86.3855 91.2687C83.6418 93.8997 79.2999 93.8602 76.6046 91.1798Z" fill="url(#paint1_linear_2_49)"/>
<path d="M69.6076 98.2727L12.0195 40.9617C7.59335 36.5568 10.7128 29 16.9573 29H35.2883C37.147 29 38.9294 29.7393 40.2425 31.0548L88.8518 79.7534C91.6609 82.5677 91.5645 87.154 88.6394 89.8478L79.2874 98.4602C76.5308 100.999 72.2638 100.916 69.6076 98.2727Z" fill="url(#paint2_linear_2_49)"/>
<defs>
<linearGradient id="paint0_linear_2_49" x1="54" y1="0" x2="54" y2="90" gradientUnits="userSpaceOnUse">
<stop stop-color="#7687E0"/>
<stop offset="1" stop-color="#7D59E4"/>
</linearGradient>
<linearGradient id="paint1_linear_2_49" x1="53.7581" y1="15" x2="53.7581" y2="102.48" gradientUnits="userSpaceOnUse">
<stop stop-color="#7452D3"/>
<stop offset="1" stop-color="#9F55EA"/>
</linearGradient>
<linearGradient id="paint2_linear_2_49" x1="54.1047" y1="29" x2="54.1047" y2="117.8" gradientUnits="userSpaceOnUse">
<stop stop-color="#52BCD3"/>
<stop offset="1" stop-color="#55BDEA"/>
</linearGradient>
</defs>
</svg>
